<svg xmlns="http://www.w3.org/2000/svg" width="315.539" height="252.092" viewBox="0 0 315.539 252.092">
  <g id="b" transform="translate(0)">
    <g id="c" transform="translate(0)">
      <g id="Group_4349" data-name="Group 4349" transform="translate(152.42)">
        <rect id="Rectangle_3692" data-name="Rectangle 3692" width="31.69" height="9.304" transform="translate(13.243)" fill="#c8e7e9"/>
        <g id="Group_4348" data-name="Group 4348" transform="translate(0 2.78)">
          <path id="Path_3207" data-name="Path 3207" d="M117.51,150.248v21.3h-5.739v-21.3H92.949v21.3H85.41V6.45a1.256,1.256,0,0,1,1.283-1.23h55.68a1.267,1.267,0,0,1,1.283,1.23v165.1h-7.539v-21.3" transform="translate(-85.41 1.303)" fill="#c8e7e9"/>
          <rect id="Rectangle_3693" data-name="Rectangle 3693" width="49.905" height="12.227" transform="translate(4.135 13.225)" fill="#9dd6da"/>
          <rect id="Rectangle_3694" data-name="Rectangle 3694" width="3.386" height="12.352" transform="translate(27.394 19.374)" fill="#9dd6da"/>
          <rect id="Rectangle_3695" data-name="Rectangle 3695" width="49.905" height="12.227" transform="translate(4.135 41.35)" fill="#9dd6da"/>
          <rect id="Rectangle_3696" data-name="Rectangle 3696" width="3.386" height="12.352" transform="translate(27.394 47.499)" fill="#9dd6da"/>
          <rect id="Rectangle_3697" data-name="Rectangle 3697" width="49.905" height="12.227" transform="translate(4.135 69.475)" fill="#9dd6da"/>
          <rect id="Rectangle_3698" data-name="Rectangle 3698" width="3.386" height="12.352" transform="translate(27.394 75.624)" fill="#9dd6da"/>
          <rect id="Rectangle_3699" data-name="Rectangle 3699" width="49.905" height="12.227" transform="translate(4.135 97.6)" fill="#9dd6da"/>
          <rect id="Rectangle_3700" data-name="Rectangle 3700" width="3.386" height="12.352" transform="translate(27.394 103.749)" fill="#9dd6da"/>
          <rect id="Rectangle_3701" data-name="Rectangle 3701" width="49.905" height="12.227" transform="translate(4.135 125.725)" fill="#9dd6da"/>
          <rect id="Rectangle_3702" data-name="Rectangle 3702" width="3.386" height="12.352" transform="translate(27.394 131.874)" fill="#9dd6da"/>
          <path id="Line_419" data-name="Line 419" d="M30.014.474H0V-.185H30.014Z" transform="translate(56.072 82.038)" fill="#a8dde8"/>
          <path id="Line_420" data-name="Line 420" d="M30.032.474H0V-.185H30.032Z" transform="translate(56.054 109.753)" fill="#a8dde8"/>
          <path id="Path_3208" data-name="Path 3208" d="M126.86,47.81v4.509h1.408V49.664H129.3v2.656h1.372V47.81Z" transform="translate(-52.983 34.623)" fill="#c8e7e9"/>
          <path id="Path_3209" data-name="Path 3209" d="M125.526,67.872V64.753h-.766V63.22H130.2v1.586h-.8v3.066Z" transform="translate(-54.626 46.678)" fill="#c8e7e9"/>
          <rect id="Rectangle_3703" data-name="Rectangle 3703" width="4.866" height="6.381" transform="translate(79.207 82.165)" fill="#c8e7e9"/>
          <rect id="Rectangle_3704" data-name="Rectangle 3704" width="5.097" height="6.702" transform="translate(59.904 109.898)" fill="#c8e7e9"/>
          <path id="Path_3210" data-name="Path 3210" d="M128.56,63.26v4.509h1.39V65.131H131v2.638h1.372V63.26Z" transform="translate(-51.653 46.709)" fill="#c8e7e9"/>
          <path id="Path_3211" data-name="Path 3211" d="M119.506,52.4V49.285h-.766V47.77h5.436v1.568h-.8V52.4Z" transform="translate(-59.335 34.591)" fill="#c8e7e9"/>
          <rect id="Rectangle_3705" data-name="Rectangle 3705" width="4.723" height="6.595" transform="translate(65.999 86.888) rotate(-90)" fill="#c8e7e9"/>
          <rect id="Rectangle_3706" data-name="Rectangle 3706" width="17.199" height="8.947" transform="translate(20.497)" fill="#9dd6da"/>
        </g>
      </g>
      <g id="Group_4350" data-name="Group 4350" transform="translate(221.039 75.089)">
        <ellipse id="Ellipse_512" data-name="Ellipse 512" cx="2.567" cy="2.567" rx="2.567" ry="2.567" fill="#9bd4d8"/>
        <circle id="Ellipse_513" data-name="Ellipse 513" cx="2.05" cy="2.05" r="2.05" transform="translate(2.513 6.024)" fill="#9bd4d8"/>
        <path id="Path_3212" data-name="Path 3212" d="M127.84,45.928a1.973,1.973,0,0,0,1.5.321.19.19,0,0,0,.178-.16c.036-.321.107-1.123-.267-1.5a.98.98,0,1,0-1.39,1.337Z" transform="translate(-121.121 -40.527)" fill="#9bd4d8"/>
        <path id="Path_3213" data-name="Path 3213" d="M128.236,44.2c-.089-.232-.446-.339-.588-.392a.131.131,0,0,0-.107.036.887.887,0,0,0-.125.7.5.5,0,0,0,.624.321A.469.469,0,0,0,128.236,44.2Z" transform="translate(-121.195 -40.816)" fill="#9bd4d8"/>
        <path id="Path_3214" data-name="Path 3214" d="M0,0H2.5V.677H.677A.677.677,0,0,1,0,0Z" transform="translate(7.058 10.106) rotate(180)" fill="#9bd4d8"/>
        <path id="Path_3215" data-name="Path 3215" d="M129.173,46.119l-1.408-.659-.285.606,2.014.945h0A.679.679,0,0,0,129.173,46.119Z" transform="translate(-121.117 -39.525)" fill="#9bd4d8"/>
        <path id="Path_3216" data-name="Path 3216" d="M129.482,45.885a1,1,0,0,0,.517.82c.392.178.428.945.428.945a1.965,1.965,0,0,0-.553-.178c-.374-.053-.731.178-.7.731s-1.105-.267-1.105-.267l-2.424-.891a4.508,4.508,0,0,1,1.818-1.586c1.123-.553,1.23-.588,1.586-1.016s.552.749.552.749l-.107.713Z" transform="translate(-122.549 -40.395)" fill="#9bd4d8"/>
        <path id="Path_3217" data-name="Path 3217" d="M126.943,47.114a2.247,2.247,0,0,0-.481,2.941,5.584,5.584,0,0,0,1.568,1.3,3.614,3.614,0,0,1-2.941-1.372c-.927-1.444-.606-2.745-.3-4.171a2.126,2.126,0,0,1,1.551-1.675s2.121-1.337,2.228-.677.321,1.836-1.622,3.672Z" transform="translate(-123.467 -41.232)" fill="#9bd4d8"/>
      </g>
      <rect id="Rectangle_3707" data-name="Rectangle 3707" width="6.399" height="27.127" rx="1.8" transform="translate(57.525 61.245) rotate(-14.11)" fill="#ffcc07"/>
      <rect id="Rectangle_3708" data-name="Rectangle 3708" width="6.399" height="27.127" rx="1.8" transform="translate(0 131.688) rotate(-86.5)" fill="#ffcc07"/>
      <rect id="Rectangle_3709" data-name="Rectangle 3709" width="6.399" height="27.127" rx="1.8" transform="matrix(0.677, -0.736, 0.736, 0.677, 17.721, 83.129)" fill="#ffcc07"/>
      <g id="Group_4353" data-name="Group 4353" transform="translate(238.359 92.475)">
        <g id="Group_4352" data-name="Group 4352" transform="translate(0)">
          <rect id="Rectangle_3710" data-name="Rectangle 3710" width="25.184" height="11.246" transform="translate(68.446 85.846) rotate(180)" fill="#333"/>
          <path id="Path_3218" data-name="Path 3218" d="M147.267,117.293l-6.737-5.971A332.777,332.777,0,0,0,167.907,70.4l3.957,9.019S170.58,92.269,147.267,117.293Z" transform="translate(-128.227 -37.4)" fill="#2e67b1"/>
          <path id="Path_3219" data-name="Path 3219" d="M165.444,140.374a58.645,58.645,0,0,1,4.082-32.474l3.885-9.09L160.81,101l-3.44,10.07a58.336,58.336,0,0,0-3.155,20.835,69.523,69.523,0,0,0,1.087,9.963l6.274,27.27h10.373" transform="translate(-117.548 -15.174)" fill="#333"/>
          <path id="Path_3220" data-name="Path 3220" d="M5.24,0H31.85a5.249,5.249,0,0,1,5.24,5.24v31.9A9.554,9.554,0,0,1,27.537,46.7H9.553A9.554,9.554,0,0,1,0,37.144V5.24A5.249,5.249,0,0,1,5.24,0Z" transform="translate(77.181 74.168) rotate(175.71)" fill="#508cca"/>
          <rect id="Rectangle_3711" data-name="Rectangle 3711" width="10.373" height="70.58" transform="translate(68.446 156.426) rotate(180)" fill="#333"/>
          <rect id="Rectangle_3712" data-name="Rectangle 3712" width="12.975" height="6.202" transform="translate(54.796 153.798) rotate(162.99)" fill="#787878"/>
          <rect id="Rectangle_3713" data-name="Rectangle 3713" width="6.416" height="8.644" rx="1.64" transform="translate(52.196 23.09) rotate(-4.29)" fill="#ffcc07"/>
          <ellipse id="Ellipse_514" data-name="Ellipse 514" cx="11.567" cy="11.567" rx="11.567" ry="11.567" transform="translate(42.335 3.503)" fill="#ffcc07"/>
          <circle id="Ellipse_515" data-name="Ellipse 515" cx="2.673" cy="2.673" r="2.673" transform="translate(45.152 12.712) rotate(-4.29)" fill="#fffffc"/>
          <ellipse id="Ellipse_516" data-name="Ellipse 516" cx="1.658" cy="1.675" rx="1.658" ry="1.675" transform="translate(45.297 13.861) rotate(-4.29)" fill="#333"/>
          <circle id="Ellipse_517" data-name="Ellipse 517" cx="2.673" cy="2.673" r="2.673" transform="translate(51.695 12.277) rotate(-4.29)" fill="#fffffc"/>
          <ellipse id="Ellipse_518" data-name="Ellipse 518" cx="1.658" cy="1.675" rx="1.658" ry="1.675" transform="translate(51.821 13.41) rotate(-4.29)" fill="#333"/>
          <path id="Path_3221" data-name="Path 3221" d="M178.043,61.465c.16,2.281.3,4.581.428,6.862a35.4,35.4,0,0,1,.2,5.668,4.136,4.136,0,0,0,3.547-4.206c-.16-2.816-.41-5.632-.624-8.43-.053-.642-.089-1.283-.143-1.925a4.105,4.105,0,0,0-4.491-3.939c-.267,0-.481.053-.659-.267a4.244,4.244,0,0,0-4.509-2.3c-2.335.2-4.67.356-7,.535a2.133,2.133,0,0,1-.945-.125c-1.141-.41-2.3-.82-3.44-1.248a2.44,2.44,0,1,0-1.943,4.474c.036,0,.053.053.071.071a2.489,2.489,0,0,0-1.978,2.959,2.154,2.154,0,0,0,1.854,1.818,25.635,25.635,0,0,0,5.6.606c2.994-.232,5.989-.481,8.983-.7a3.706,3.706,0,0,0,2.174-.891,1.978,1.978,0,0,0,2.87,1.034Z" transform="translate(-115.746 -51.885)" fill="#333"/>
          <path id="Path_3222" data-name="Path 3222" d="M172.678,137.865h.053a9.957,9.957,0,0,0-3.083.178,5.77,5.77,0,0,0-4.046,5.543c.018.5.178.677.7.677h5.828c.392,0,.624-.089.624-.553-.036-1.961-.036-3.9-.053-5.864Z" transform="translate(-108.616 15.353)" fill="#787878"/>
          <path id="Path_3223" data-name="Path 3223" d="M168.7,137.865h-.053a9.957,9.957,0,0,1,3.083.178,5.77,5.77,0,0,1,4.046,5.543c-.018.5-.178.677-.7.677h-5.828c-.392,0-.624-.089-.624-.553.036-1.961.036-3.9.053-5.864Z" transform="translate(-106.244 15.353)" fill="#787878"/>
          <rect id="Rectangle_3714" data-name="Rectangle 3714" width="4.545" height="10.676" rx="0.91" transform="matrix(0.672, -0.741, 0.741, 0.672, 9.445, 75.841)" fill="#ffcc07"/>
          <g id="Group_4351" data-name="Group 4351" transform="translate(7.71 64.001)">
            <rect id="Rectangle_3715" data-name="Rectangle 3715" width="8.858" height="17.93" rx="0.89" transform="matrix(0.672, -0.741, 0.741, 0.672, 0.302, 6.863)" fill="#c1e2e6"/>
            <path id="Rectangle_3715_-_Outline" data-name="Rectangle 3715 - Outline" d="M1.8,0H7.486a1.8,1.8,0,0,1,1.8,1.8V16.558a1.8,1.8,0,0,1-1.8,1.8H1.8a1.8,1.8,0,0,1-1.8-1.8V1.8A1.8,1.8,0,0,1,1.8,0ZM7.486,17.93a1.374,1.374,0,0,0,1.372-1.372V1.8A1.374,1.374,0,0,0,7.486.428H1.8A1.374,1.374,0,0,0,.428,1.8V16.558A1.374,1.374,0,0,0,1.8,17.93Z" transform="matrix(0.672, -0.741, 0.741, 0.672, 0, 6.878)" fill="#333"/>
            <path id="Path_3224" data-name="Path 3224" d="M142.313,88.7l-.125.143a.457.457,0,0,0,0,.659l.125.107a.311.311,0,0,1,0,.446l-2.1,2.335a.317.317,0,0,1-.446.053l-.125-.107a.458.458,0,0,0-.642.071l-.178.2" transform="translate(-137.275 -87.084)" fill="#333"/>
            <path id="Path_3225" data-name="Path 3225" d="M144.41,100.376l6.042-6.666.766.7a1.607,1.607,0,0,1,.125,2.264l-3.885,4.3a1.625,1.625,0,0,1-2.281.107l-.766-.7Z" transform="translate(-132.902 -83.165)" fill="#333"/>
          </g>
          <path id="Path_3226" data-name="Path 3226" d="M184.318,84.049l5.721-9.339,1.889,1.854s5.739,14.259-15.934,26.254c-20.1,11.122-26.521,13.029-26.521,13.029l-.053-8.733s10.961-5.418,20.621-11.567" transform="translate(-121.272 -34.028)" fill="#508cca"/>
          <path id="Path_3227" data-name="Path 3227" d="M151,102.617l1.711-.659A1.823,1.823,0,0,0,153.819,100l-1.337-6.648a1.216,1.216,0,0,0-1.675-.909L149.1,93.1a1.823,1.823,0,0,0-1.105,1.961l1.337,6.648A1.216,1.216,0,0,0,151,102.617Z" transform="translate(-122.41 -20.228)" fill="#ffcc07"/>
          <rect id="Rectangle_3716" data-name="Rectangle 3716" width="2.673" height="11.549" rx="0.75" transform="translate(18.459 76.487) rotate(-97.39)" fill="#ffcc07"/>
          <rect id="Rectangle_3717" data-name="Rectangle 3717" width="1.444" height="6.131" rx="0.41" transform="translate(7.351 56.75) rotate(-20.8)" fill="#ffcc07"/>
          <rect id="Rectangle_3718" data-name="Rectangle 3718" width="1.444" height="6.131" rx="0.41" transform="translate(0.08 68.499) rotate(-93.19)" fill="#ffcc07"/>
          <rect id="Rectangle_3719" data-name="Rectangle 3719" width="1.444" height="6.131" rx="0.41" transform="translate(1.874 61.05) rotate(-54.06)" fill="#ffcc07"/>
        </g>
        <path id="Path_3228" data-name="Path 3228" d="M158.681,136.97s-6.737,2.014-4.9,7.967l6.719-2.05Z" transform="translate(-118.11 14.68)" fill="#787878"/>
      </g>
      <g id="Group_4358" data-name="Group 4358" transform="translate(4.522 108.757)">
        <g id="Group_4357" data-name="Group 4357">
          <path id="Path_3230" data-name="Path 3230" d="M199.921,144.471H35.823c-20.247,0-34.934-6.167-29.551-12.423h0c4.634-5.383,19.926-9.108,37.358-9.108h148.5c17.431,0,32.723,3.725,37.357,9.108h0c5.383,6.256-9.3,12.423-29.551,12.423Z" transform="translate(-0.301 -12.578)" fill="#c7e6e8"/>
          <g id="Group_4356" data-name="Group 4356">
            <ellipse id="Ellipse_520" data-name="Ellipse 520" cx="3.386" cy="7.468" rx="3.386" ry="7.468" transform="translate(225.387 58.047) rotate(-3.65)" fill="#ffcc05"/>
            <path id="Path_3231" data-name="Path 3231" d="M231.869,130.869c-.321-2.745-.57-6.595-.731-9.518a8.592,8.592,0,0,0-3.957-6.755c-6.951-4.438-21.513-9.892-43.827-15.827-6.9-8.662-28.66-37.75-72.2-37.75-58.5,0-79.563,44.9-79.563,44.9l-.374.481c-4.83,9.108-16.077,9.072-22.1,17.467-3.992,5.579-6.684,17.716-6.684,22.725,0,12.512,9.357,17.7,16.932,17.7h1.159l11.086.036h2.014a25.9,25.9,0,0,0,45.521.2h2.032l46.946.2H162.2a26.431,26.431,0,0,0,23.17,13.742c9.981,0,17.52-5.561,22.012-13.742h9.838c14.4,0,19.926-2.656,19.926-11.407,0-11.246,1.854-14.169-2.549-17.645a7.136,7.136,0,0,1-2.745-4.794Z" transform="translate(-2.43 -61.02)" fill="#00a3ad"/>
            <g id="Group_4355" data-name="Group 4355" transform="translate(30.193 7.682)">
              <path id="Path_3232" data-name="Path 3232" d="M75.225,65.33v37.732H32.931c-2.3,0-7.878-1.3-5.472-7.486A80.392,80.392,0,0,1,41.076,81.068,68.825,68.825,0,0,1,62.428,68.859,99.251,99.251,0,0,1,75.225,65.33Z" transform="translate(-13.503 -65.33)" fill="#f1f3f5"/>
              <circle id="Ellipse_521" data-name="Ellipse 521" cx="23.741" cy="23.741" r="23.741" transform="translate(0 65.946)" fill="#2d6a80"/>
              <circle id="Ellipse_522" data-name="Ellipse 522" cx="13.742" cy="13.742" r="13.742" transform="translate(9.999 75.945)" fill="#ffcc05"/>
              <circle id="Ellipse_523" data-name="Ellipse 523" cx="23.741" cy="23.741" r="23.741" transform="translate(128.809 65.946)" fill="#2d6a80"/>
              <circle id="Ellipse_524" data-name="Ellipse 524" cx="13.742" cy="13.742" r="13.742" transform="translate(138.807 75.945)" fill="#ffcc05"/>
            </g>
            <path id="Path_3233" data-name="Path 3233" d="M126.579,94.889A17.9,17.9,0,0,1,129,98.881a3.53,3.53,0,0,1-3.19,5.008H60.08l.356-39.229a80.313,80.313,0,0,1,21.744,1.515,73.288,73.288,0,0,1,12.1,3.707c6.274,2.46,11.1,5.329,18.019,10.587,5.026,3.814,9.339,8.662,14.276,14.437Z" transform="translate(42.671 -58.316)" fill="#f1f3f5"/>
            <path id="Line_421" data-name="Line 421" d="M17.242,4.462H1.361a3.1,3.1,0,1,1,0-6.2H17.242a3.1,3.1,0,0,1,0,6.2Z" transform="translate(106.576 59.042)" fill="#2d6a80"/>
          </g>
        </g>
        <path id="Path_3234" data-name="Path 3234" d="M95.021,80.51h7.308a8.736,8.736,0,0,1,8.733,8.733h0a8.736,8.736,0,0,1-8.733,8.733H95.021A3.921,3.921,0,0,1,91.1,94.056V84.431a3.921,3.921,0,0,1,3.921-3.921Z" transform="translate(66.939 -45.772)" fill="#2d6a80"/>
      </g>
      <g id="Group_6335" data-name="Group 6335" transform="translate(-12.191 37.672)">
        <circle id="Ellipse_1475" data-name="Ellipse 1475" cx="22.013" cy="22.013" r="22.013" transform="translate(95.529)" fill="#ffcc02"/>
        <rect id="Rectangle_4488" data-name="Rectangle 4488" width="18.576" height="13.584" rx="1.674" transform="translate(108.258 20.833)" fill="#2c6a80"/>
        <path id="Path_4765" data-name="Path 4765" d="M992.763,462.692v-6.448a5,5,0,0,1,10.006,0v.724" transform="translate(-880.224 -442.236)" fill="none" stroke="#2c6a80" stroke-linecap="round" stroke-width="2"/>
      </g>
    </g>
  </g>
</svg>
